<?xml version="1.0" encoding="UTF-8"?>
<svg width="231.25mm" height="34.29mm" version="1.1" viewBox="0 0 231.25 34.29" xmlns="http://www.w3.org/2000/svg" xmlns:cc="http://creativecommons.org/ns#" xmlns:dc="http://purl.org/dc/elements/1.1/" xmlns:rdf="http://www.w3.org/1999/02/22-rdf-syntax-ns#">
<metadata>
<rdf:RDF>
<cc:Work rdf:about="">
<dc:format>image/svg+xml</dc:format>
<dc:type rdf:resource="http://purl.org/dc/dcmitype/StillImage"/>
<dc:title/>
</cc:Work>
</rdf:RDF>
</metadata>
<g transform="translate(-12.798 -178.49)">
<g fill="#f1f1f1" stroke-width=".26458" style="font-feature-settings:normal;font-variant-caps:normal;font-variant-ligatures:normal;font-variant-numeric:normal" aria-label="hukukturk.com">
<path d="m236.23 195.3c1.9812 0 2.9464 1.3208 2.9464 4.0132v13.208h4.8768v-13.208c0-5.6388-3.1496-8.6868-7.5692-8.6868-2.4892 0-4.3688 0.9144-5.6896 2.7432-1.27-1.8288-3.0988-2.7432-5.588-2.7432-4.4704 0-7.6708 2.9972-7.6708 8.6868v13.208h4.8768v-13.208c0-2.6924 0.9652-4.0132 2.9464-4.0132s2.9972 1.3208 2.9972 4.0132v13.208h4.8768v-13.208c0-2.6924 1.016-4.0132 2.9972-4.0132zm-42.763 6.4008c0 3.0988 1.0668 5.6896 3.2512 7.874 2.1844 2.1336 4.7752 3.2004 7.874 3.2004 3.048 0 5.6388-1.0668 7.8232-3.2004 2.1844-2.1844 3.2512-4.7752 3.2512-7.874 0-3.048-1.0668-5.6388-3.2512-7.8232s-4.7752-3.2512-7.8232-3.2512c-3.0988 0-5.6896 1.0668-7.874 3.2512s-3.2512 4.7752-3.2512 7.8232zm6.6548-4.572c1.2192-1.2192 2.6924-1.8288 4.4704-1.8288s3.2512 0.6096 4.4196 1.8288c1.2192 1.1684 1.8288 2.6924 1.8288 4.572s-0.6096 3.4036-1.8288 4.6228c-1.1684 1.1684-2.6416 1.778-4.4196 1.778s-3.2512-0.6096-4.4704-1.778c-1.1684-1.2192-1.778-2.7432-1.778-4.6228s0.6096-3.4036 1.778-4.572zm-9.14-6.2484c-3.9624 0-7.0612 1.016-9.2456 3.0988-2.1844 2.032-3.2512 4.6228-3.2512 7.7216s1.0668 5.6896 3.2512 7.7724c2.1844 2.032 5.2832 3.048 9.2456 3.048h2.4892v-4.6736h-2.4892c-4.826 0-7.62-2.286-7.62-6.1468s2.794-6.1468 7.62-6.1468h2.4892v-4.6736zm-18.378 20.93c1.27 1.27 3.4036 1.27 4.6736 0 1.3716-1.27 1.3716-3.4036 0-4.6736-1.27-1.3716-3.4036-1.3716-4.6736 0-1.27 1.27-1.27 3.4036 0 4.6736zm-1.5264 0.7112-7.874-11.328 7.112-10.312h-5.7404l-6.5024 9.3472v-21.742h-4.8768v34.036h4.8768v-10.516l7.2136 10.516zm-24.023-12.903c0-2.6924 1.2192-4.064 3.6576-4.064h0.9144v-4.6736h-1.1684c-4.7244 0-8.2296 2.4892-8.2296 8.7376v12.903h4.826zm-11.9 2.9464c0 3.6068-1.7272 5.5372-4.3688 5.5372s-4.318-1.8796-4.318-5.5372v-11.684h-4.8768v11.684c0 3.4544 0.9144 6.0452 2.6924 7.7216 1.8288 1.6764 4.0132 2.4892 6.5024 2.4892s4.6736-0.8636 6.5024-2.54 2.7432-4.2672 2.7432-7.6708v-11.684h-4.8768zm-15.699 5.2832c-2.3876 0-3.556-1.3208-3.556-4.0132v-8.2804h4.1656v-4.6736h-4.1656v-9.652h-4.826v22.606c0 6.2484 3.4544 8.6868 8.382 8.6868h1.016v-4.6736zm-8.505 4.6736-7.874-11.328 7.112-10.312h-5.7404l-6.5024 9.3472v-21.742h-4.8768v34.036h4.8768v-10.516l7.2136 10.516zm-25.108-9.9568c0 3.6068-1.7272 5.5372-4.3688 5.5372s-4.318-1.8796-4.318-5.5372v-11.684h-4.8768v11.684c0 3.4544 0.9144 6.0452 2.6924 7.7216 1.8288 1.6764 4.0132 2.4892 6.5024 2.4892s4.6736-0.8636 6.5024-2.54 2.7432-4.2672 2.7432-7.6708v-11.684h-4.8768zm-13.687 9.9568-7.874-11.328 7.112-10.312h-5.7404l-6.5024 9.3472v-21.742h-4.8768v34.036h4.8768v-10.516l7.2136 10.516zm-25.108-9.9568c0 3.6068-1.7272 5.5372-4.3688 5.5372s-4.318-1.8796-4.318-5.5372v-11.684h-4.8768v11.684c0 3.4544 0.9144 6.0452 2.6924 7.7216 1.8288 1.6764 4.0132 2.4892 6.5024 2.4892s4.6736-0.8636 6.5024-2.54 2.7432-4.2672 2.7432-7.6708v-11.684h-4.8768zm-34.247-24.079v34.036h4.8768v-11.684c0-3.7084 1.7272-5.5372 4.318-5.5372 2.6416 0 4.3688 1.8796 4.3688 5.5372v11.684h4.8768v-11.684c0-3.302-0.8636-5.842-2.5908-7.5692-1.6764-1.778-3.7592-2.6416-6.1468-2.6416-1.778 0-3.4036 0.508-4.826 1.4732v-13.614z" style=""/>
</g>
</g>
</svg>
